<svg width="40" height="40" viewBox="0 0 40 40" fill="none" xmlns="http://www.w3.org/2000/svg">
<mask id="path-1-inside-1" fill="white">
<path fill-rule="evenodd" clip-rule="evenodd" d="M20 26.8966C20.3687 26.8966 20.6667 27.2055 20.6667 27.5862C20.6667 27.9669 20.3687 28.2759 20 28.2759C19.6313 28.2759 19.3333 27.9669 19.3333 27.5862C19.3333 27.2055 19.6313 26.8966 20 26.8966ZM22.5153 31.7253C23.1921 31.7254 23.7187 32.3225 23.8484 32.9867C24.0639 34.0902 23.2535 35.8621 22.1292 35.8621H17.8718C16.7474 35.8621 15.9369 34.0902 16.1524 32.9866C16.2822 32.3219 16.8092 31.7242 17.4864 31.7244L22.5153 31.7253ZM0 28.6214C0 30.3324 1.34533 31.7241 2.99867 31.7241H11.3892C13.3725 31.7241 15.1562 33.6392 13.554 34.8083L12.3533 35.6841C12.1695 35.8161 11.9994 35.9767 11.797 36.078C11.13 36.4122 10.6667 37.1136 10.6667 37.931C10.6667 39.0717 11.564 40 12.6667 40H27.3333C28.436 40 29.3333 39.0717 29.3333 37.931C29.3333 37.112 28.8681 36.4094 28.199 36.0761C27.9989 35.9764 27.8304 35.8192 27.6507 35.6862L26.448 34.8097C24.8446 33.6405 26.629 31.7241 28.6135 31.7241H37.0013C38.6547 31.7241 40 30.3324 40 28.6214C40 26.907 38.6102 25.5172 36.8959 25.5172H3.10414C1.38977 25.5172 0 26.907 0 28.6214Z"/>
<path fill-rule="evenodd" clip-rule="evenodd" d="M17.3333 11.7241H16C15.6313 11.7241 15.3333 11.4152 15.3333 11.0345C15.3333 10.6538 15.6313 10.3448 16 10.3448H17.3333C17.702 10.3448 18 10.6538 18 11.0345C18 11.4152 17.702 11.7241 17.3333 11.7241ZM13.3333 11.7241H12C11.6313 11.7241 11.3333 11.4152 11.3333 11.0345C11.3333 10.6538 11.6313 10.3448 12 10.3448H13.3333C13.702 10.3448 14 10.6538 14 11.0345C14 11.4152 13.702 11.7241 13.3333 11.7241ZM10 8.27586C10 8.65655 9.702 8.96552 9.33333 8.96552C8.96467 8.96552 8.66667 8.65655 8.66667 8.27586V4.13793C8.66667 3.75724 8.96467 3.44828 9.33333 3.44828C9.702 3.44828 10 3.75724 10 4.13793V8.27586ZM9.33333 11.7241C8.96467 11.7241 8.66667 11.4152 8.66667 11.0345C8.66667 10.6538 8.96467 10.3448 9.33333 10.3448C9.702 10.3448 10 10.6538 10 11.0345C10 11.4152 9.702 11.7241 9.33333 11.7241ZM7.08267 11.5731C6.95933 11.6752 6.81333 11.7241 6.66733 11.7241C6.47133 11.7241 6.27733 11.6352 6.146 11.4648L3.48733 8.02138C3.29333 7.76965 3.29267 7.4131 3.48667 7.16138L6.14533 3.70828C6.37467 3.41103 6.79267 3.36138 7.082 3.59862C7.37 3.83586 7.41733 4.26966 7.188 4.56759L6.74182 5.14726C5.63364 6.58698 5.63494 8.59271 6.74499 10.031L7.18733 10.6041C7.41733 10.9021 7.37067 11.3359 7.08267 11.5731ZM37.0013 0H2.99867C1.34533 0 0 1.39172 0 3.10276V20.1379C0 22.3471 1.79086 24.1379 4 24.1379H36C38.2091 24.1379 40 22.3471 40 20.1379V3.10276C40 1.39172 38.6547 0 37.0013 0Z"/>
</mask>
<path d="M7.08267 11.5731L6.44685 10.8013L6.4451 10.8027L7.08267 11.5731ZM6.146 11.4648L6.93795 10.8542L6.93753 10.8537L6.146 11.4648ZM3.48733 8.02138L2.69527 8.63181L2.69581 8.63251L3.48733 8.02138ZM3.48667 7.16138L4.27873 7.77181L4.27902 7.77144L3.48667 7.16138ZM6.14533 3.70828L5.35359 3.09742L5.35298 3.09821L6.14533 3.70828ZM7.082 3.59862L7.71781 2.82677L7.71606 2.82534L7.082 3.59862ZM7.188 4.56759L6.39558 3.95762L6.39556 3.95763L7.188 4.56759ZM7.18733 10.6041L6.39569 11.2151L6.39577 11.2152L7.18733 10.6041ZM6.74499 10.031L5.95334 10.642L6.74499 10.031ZM11.797 36.078L12.2449 36.9721L11.797 36.078ZM28.199 36.0761L27.7531 36.9711L28.199 36.0761ZM17.4864 31.7244L17.4862 32.7244L17.4864 31.7244ZM22.5153 31.7253L22.5155 30.7253L22.5153 31.7253ZM20 27.8966C19.7841 27.8966 19.6667 27.7249 19.6667 27.5862H21.6667C21.6667 26.6861 20.9533 25.8966 20 25.8966V27.8966ZM19.6667 27.5862C19.6667 27.4475 19.7841 27.2759 20 27.2759V29.2759C20.9533 29.2759 21.6667 28.4863 21.6667 27.5862H19.6667ZM20 27.2759C20.2159 27.2759 20.3333 27.4475 20.3333 27.5862H18.3333C18.3333 28.4863 19.0467 29.2759 20 29.2759V27.2759ZM20.3333 27.5862C20.3333 27.7249 20.2159 27.8966 20 27.8966V25.8966C19.0467 25.8966 18.3333 26.6861 18.3333 27.5862H20.3333ZM22.1292 34.8621H17.8718V36.8621H22.1292V34.8621ZM17.4862 32.7244L22.5152 32.7253L22.5155 30.7253L17.4866 30.7244L17.4862 32.7244ZM-1 28.6214C-1 30.8523 0.761222 32.7241 2.99867 32.7241V30.7241C1.92945 30.7241 1 29.8125 1 28.6214H-1ZM2.99867 32.7241H11.3892V30.7241H2.99867V32.7241ZM12.9647 34.0004L11.764 34.8763L12.9427 36.492L14.1433 35.6162L12.9647 34.0004ZM11.3491 35.184C10.3502 35.6844 9.66667 36.7279 9.66667 37.931H11.6667C11.6667 37.4994 11.9098 37.14 12.2449 36.9721L11.3491 35.184ZM9.66667 37.931C9.66667 39.5918 10.98 41 12.6667 41V39C12.148 39 11.6667 38.5517 11.6667 37.931H9.66667ZM12.6667 41H27.3333V39H12.6667V41ZM27.3333 41C29.02 41 30.3333 39.5918 30.3333 37.931H28.3333C28.3333 38.5517 27.852 39 27.3333 39V41ZM30.3333 37.931C30.3333 36.7256 29.6471 35.6803 28.645 35.181L27.7531 36.9711C28.0892 37.1386 28.3333 37.4985 28.3333 37.931H30.3333ZM28.2397 34.8781L27.037 34.0015L25.859 35.6178L27.0617 36.4943L28.2397 34.8781ZM28.6135 32.7241H37.0013V30.7241H28.6135V32.7241ZM37.0013 32.7241C39.2388 32.7241 41 30.8523 41 28.6214H39C39 29.8125 38.0706 30.7241 37.0013 30.7241V32.7241ZM36.8959 24.5172H3.10414V26.5172H36.8959V24.5172ZM17.3333 10.7241H16V12.7241H17.3333V10.7241ZM16 10.7241C16.2159 10.7241 16.3333 10.8958 16.3333 11.0345H14.3333C14.3333 11.9346 15.0467 12.7241 16 12.7241V10.7241ZM16.3333 11.0345C16.3333 11.1732 16.2159 11.3448 16 11.3448V9.34483C15.0467 9.34483 14.3333 10.1344 14.3333 11.0345H16.3333ZM16 11.3448H17.3333V9.34483H16V11.3448ZM17.3333 11.3448C17.1174 11.3448 17 11.1732 17 11.0345H19C19 10.1344 18.2866 9.34483 17.3333 9.34483V11.3448ZM17 11.0345C17 10.8958 17.1174 10.7241 17.3333 10.7241V12.7241C18.2866 12.7241 19 11.9346 19 11.0345H17ZM13.3333 10.7241H12V12.7241H13.3333V10.7241ZM12 10.7241C12.2159 10.7241 12.3333 10.8958 12.3333 11.0345H10.3333C10.3333 11.9346 11.0467 12.7241 12 12.7241V10.7241ZM12.3333 11.0345C12.3333 11.1732 12.2159 11.3448 12 11.3448V9.34483C11.0467 9.34483 10.3333 10.1344 10.3333 11.0345H12.3333ZM12 11.3448H13.3333V9.34483H12V11.3448ZM13.3333 11.3448C13.1174 11.3448 13 11.1732 13 11.0345H15C15 10.1344 14.2866 9.34483 13.3333 9.34483V11.3448ZM13 11.0345C13 10.8958 13.1174 10.7241 13.3333 10.7241V12.7241C14.2866 12.7241 15 11.9346 15 11.0345H13ZM9 8.27586C9 8.13715 9.11739 7.96552 9.33333 7.96552V9.96552C10.2866 9.96552 11 9.17595 11 8.27586H9ZM9.33333 7.96552C9.54927 7.96552 9.66667 8.13715 9.66667 8.27586H7.66667C7.66667 9.17595 8.38006 9.96552 9.33333 9.96552V7.96552ZM9.66667 8.27586V4.13793H7.66667V8.27586H9.66667ZM9.66667 4.13793C9.66667 4.27664 9.54928 4.44828 9.33333 4.44828V2.44828C8.38006 2.44828 7.66667 3.23784 7.66667 4.13793H9.66667ZM9.33333 4.44828C9.11739 4.44828 9 4.27664 9 4.13793H11C11 3.23784 10.2866 2.44828 9.33333 2.44828V4.44828ZM9 4.13793V8.27586H11V4.13793H9ZM9.33333 10.7241C9.54928 10.7241 9.66667 10.8958 9.66667 11.0345H7.66667C7.66667 11.9346 8.38006 12.7241 9.33333 12.7241V10.7241ZM9.66667 11.0345C9.66667 11.1732 9.54927 11.3448 9.33333 11.3448V9.34483C8.38006 9.34483 7.66667 10.1344 7.66667 11.0345H9.66667ZM9.33333 11.3448C9.11739 11.3448 9 11.1732 9 11.0345H11C11 10.1344 10.2866 9.34483 9.33333 9.34483V11.3448ZM9 11.0345C9 10.8958 9.11739 10.7241 9.33333 10.7241V12.7241C10.2866 12.7241 11 11.9346 11 11.0345H9ZM6.4451 10.8027C6.50478 10.7533 6.5854 10.7241 6.66733 10.7241V12.7241C7.04126 12.7241 7.41389 12.597 7.72023 12.3435L6.4451 10.8027ZM6.66733 10.7241C6.77558 10.7241 6.87642 10.7744 6.93795 10.8542L5.35405 12.0754C5.67825 12.4959 6.16709 12.7241 6.66733 12.7241V10.7241ZM6.93753 10.8537L4.27886 7.41025L2.69581 8.63251L5.35447 12.076L6.93753 10.8537ZM4.2794 7.41094C4.36152 7.5175 4.3631 7.66234 4.27873 7.77181L2.6946 6.55095C2.22223 7.16387 2.22515 8.02181 2.69527 8.63181L4.2794 7.41094ZM4.27902 7.77144L6.93769 4.31834L5.35298 3.09821L2.69431 6.55132L4.27902 7.77144ZM6.93707 4.31913C6.8262 4.46284 6.60003 4.49661 6.44794 4.3719L7.71606 2.82534C6.9853 2.22615 5.92313 2.35923 5.35359 3.09742L6.93707 4.31913ZM6.44619 4.37047C6.31215 4.26005 6.30039 4.08127 6.39558 3.95762L7.98042 5.17756C8.53428 4.45804 8.42785 3.41168 7.71781 2.82678L6.44619 4.37047ZM6.39556 3.95763L5.94938 4.53731L7.53426 5.75721L7.98044 5.17754L6.39556 3.95763ZM5.95334 10.642L6.39569 11.2151L7.97898 9.99316L7.53663 9.42001L5.95334 10.642ZM6.39577 11.2152C6.30113 11.0926 6.31138 10.9129 6.44686 10.8013L7.71848 12.3449C8.42995 11.7589 8.53354 10.7115 7.9789 9.99306L6.39577 11.2152ZM37.0013 -1H2.99867V1H37.0013V-1ZM2.99867 -1C0.761222 -1 -1 0.871812 -1 3.10276H1C1 1.91164 1.92944 1 2.99867 1V-1ZM-1 3.10276V20.1379H1V3.10276H-1ZM4 25.1379H36V23.1379H4V25.1379ZM41 20.1379V3.10276H39V20.1379H41ZM41 3.10276C41 0.871812 39.2388 -1 37.0013 -1V1C38.0706 1 39 1.91164 39 3.10276H41ZM36 25.1379C38.7614 25.1379 41 22.8994 41 20.1379H39C39 21.7948 37.6569 23.1379 36 23.1379V25.1379ZM-1 20.1379C-1 22.8994 1.23858 25.1379 4 25.1379V23.1379C2.34315 23.1379 1 21.7948 1 20.1379H-1ZM11.3892 32.7241C12.0928 32.7241 12.7384 33.0766 13.0314 33.4476C13.1708 33.6242 13.1755 33.7308 13.1737 33.7547C13.1728 33.7657 13.1699 33.7847 13.1498 33.8175C13.1279 33.8532 13.077 33.9184 12.9646 34.0005L14.1434 35.6161C14.7297 35.1883 15.113 34.6031 15.1675 33.9117C15.2198 33.2477 14.955 32.6564 14.6009 32.208C13.9068 31.3292 12.6688 30.7241 11.3892 30.7241V32.7241ZM5.94938 4.53731C4.56416 6.33695 4.56579 8.84412 5.95334 10.642L7.53663 9.42001C6.7041 8.3413 6.70312 6.837 7.53426 5.75721L5.94938 4.53731ZM3.10414 24.5172C0.837484 24.5172 -1 26.3547 -1 28.6214H1C1 27.4593 1.94205 26.5172 3.10414 26.5172V24.5172ZM41 28.6214C41 26.3547 39.1625 24.5172 36.8959 24.5172V26.5172C38.0579 26.5172 39 27.4593 39 28.6214H41ZM11.7702 34.8718C11.6678 34.9453 11.5194 35.064 11.4754 35.0977C11.4005 35.1548 11.3661 35.1755 11.3491 35.184L12.2449 36.9721C12.4303 36.8793 12.5821 36.7689 12.6889 36.6875C12.8264 36.5825 12.855 36.555 12.9365 36.4965L11.7702 34.8718ZM28.645 35.181C28.6285 35.1728 28.5947 35.1527 28.5239 35.0987C28.5028 35.0826 28.3202 34.9376 28.2455 34.8823L27.0559 36.4901C27.1609 36.5678 27.1524 36.5679 27.3106 36.6886C27.4189 36.7713 27.5695 36.8797 27.7531 36.9711L28.645 35.181ZM17.1339 33.1782C17.1625 33.0314 17.2361 32.8983 17.321 32.8135C17.4007 32.7338 17.4581 32.7244 17.4862 32.7244L17.4866 30.7244C16.1747 30.7241 15.3588 31.833 15.1709 32.7949L17.1339 33.1782ZM17.8718 34.8621C17.8612 34.8621 17.6405 34.824 17.3879 34.3601C17.1532 33.9289 17.0814 33.4472 17.1339 33.1782L15.1709 32.7949C15.008 33.6296 15.2335 34.5856 15.6313 35.3163C16.0112 36.0141 16.758 36.8621 17.8718 36.8621V34.8621ZM27.0372 34.0016C26.9246 33.9196 26.8736 33.8543 26.8517 33.8185C26.8315 33.7857 26.8286 33.7666 26.8277 33.7556C26.8258 33.7316 26.8305 33.6249 26.9701 33.4482C27.2633 33.0769 27.9093 32.7241 28.6135 32.7241V30.7241C27.3332 30.7241 26.0947 31.3296 25.4005 32.2087C25.0463 32.6573 24.7815 33.2489 24.834 33.9131C24.8886 34.6046 25.2722 35.1899 25.8588 35.6177L27.0372 34.0016ZM22.8669 33.1784C22.9195 33.4473 22.8476 33.929 22.6129 34.3601C22.3604 34.8241 22.1397 34.8621 22.1292 34.8621V36.8621C23.243 36.8621 23.9897 36.0141 24.3696 35.3163C24.7673 34.5856 24.9929 33.6297 24.8299 32.7951L22.8669 33.1784ZM24.8299 32.7951C24.6421 31.8334 23.8266 30.7255 22.5155 30.7253L22.5152 32.7253C22.5433 32.7253 22.6006 32.7348 22.6801 32.8143C22.7648 32.8989 22.8383 33.0318 22.8669 33.1784L24.8299 32.7951Z" fill="black" mask="url(#path-1-inside-1)"/>
</svg>
