<svg width="60" height="60" viewBox="0 0 60 60" fill="none" xmlns="http://www.w3.org/2000/svg">
<mask id="path-1-inside-1" fill="white">
<path fill-rule="evenodd" clip-rule="evenodd" d="M30 40.3448C30.553 40.3448 31 40.8083 31 41.3793C31 41.9503 30.553 42.4138 30 42.4138C29.447 42.4138 29 41.9503 29 41.3793C29 40.8083 29.447 40.3448 30 40.3448ZM33.773 47.5879C34.7882 47.5881 35.578 48.4837 35.7726 49.4801C36.0959 51.1353 34.8803 53.7931 33.1938 53.7931H26.8077C25.121 53.7931 23.9053 51.1353 24.2286 49.4798C24.4233 48.4829 25.2138 47.5864 26.2296 47.5866L33.773 47.5879ZM0 42.9321C0 45.4986 2.018 47.5862 4.498 47.5862H18.6551C20.7431 47.5862 22.6176 49.3798 21.4226 51.092C21.1226 51.5217 20.7563 51.9021 20.331 52.2124L18.53 53.5262C18.2542 53.7242 17.9991 53.965 17.6955 54.1171C16.695 54.6183 16 55.6705 16 56.8966C16 58.6076 17.346 60 19 60H41C42.654 60 44 58.6076 44 56.8966C44 55.668 43.3022 54.6142 42.2986 54.1141C41.9984 53.9646 41.7456 53.7288 41.476 53.5293L39.672 52.2145C39.2458 51.9037 38.8789 51.5228 38.5784 51.0922C37.3835 49.3798 39.258 47.5862 41.346 47.5862H55.502C57.982 47.5862 60 45.4986 60 42.9321V42.2759C60 40.0667 58.2091 38.2759 56 38.2759H4C1.79086 38.2759 0 40.0667 0 42.2759V42.9321Z"/>
<path fill-rule="evenodd" clip-rule="evenodd" d="M26 17.5862H24C23.447 17.5862 23 17.1228 23 16.5517C23 15.9807 23.447 15.5172 24 15.5172H26C26.553 15.5172 27 15.9807 27 16.5517C27 17.1228 26.553 17.5862 26 17.5862ZM20 17.5862H18C17.447 17.5862 17 17.1228 17 16.5517C17 15.9807 17.447 15.5172 18 15.5172H20C20.553 15.5172 21 15.9807 21 16.5517C21 17.1228 20.553 17.5862 20 17.5862ZM15 12.4138C15 12.9848 14.553 13.4483 14 13.4483C13.447 13.4483 13 12.9848 13 12.4138V6.2069C13 5.63586 13.447 5.17241 14 5.17241C14.553 5.17241 15 5.63586 15 6.2069V12.4138ZM14 17.5862C13.447 17.5862 13 17.1228 13 16.5517C13 15.9807 13.447 15.5172 14 15.5172C14.553 15.5172 15 15.9807 15 16.5517C15 17.1228 14.553 17.5862 14 17.5862ZM10.624 17.3597C10.439 17.5128 10.22 17.5862 10.001 17.5862C9.707 17.5862 9.416 17.4528 9.219 17.1972L5.231 12.0321C4.94 11.6545 4.939 11.1197 5.23 10.7421L9.218 5.56241C9.562 5.11655 10.189 5.04207 10.623 5.39793C11.055 5.75379 11.126 6.40448 10.782 6.85138L9.17248 8.94243C8.06431 10.3821 8.06561 12.3879 9.17565 13.8262L10.781 15.9062C11.126 16.3531 11.056 17.0038 10.624 17.3597ZM55.502 0H4.498C2.018 0 0 2.08759 0 4.65414V32.2069C0 34.416 1.79086 36.2069 4 36.2069H56C58.2091 36.2069 60 34.416 60 32.2069V4.65414C60 2.08759 57.982 0 55.502 0Z"/>
</mask>
<path d="M20.331 52.2124L20.9203 53.0203L20.9204 53.0202L20.331 52.2124ZM39.672 52.2145L39.0828 53.0225L39.083 53.0226L39.672 52.2145ZM10.624 17.3597L9.98819 16.5878L9.98643 16.5893L10.624 17.3597ZM9.219 17.1972L10.011 16.5867L10.0105 16.5861L9.219 17.1972ZM5.231 12.0321L4.43893 12.6425L4.43947 12.6432L5.231 12.0321ZM5.23 10.7421L6.02207 11.3525L6.02235 11.3521L5.23 10.7421ZM9.218 5.56241L8.42626 4.95156L8.42565 4.95235L9.218 5.56241ZM10.623 5.39793L11.2588 4.62608L11.2571 4.62465L10.623 5.39793ZM10.782 6.85138L9.98958 6.24141L9.98956 6.24143L10.782 6.85138ZM10.781 15.9062L9.98935 16.5172L9.98943 16.5173L10.781 15.9062ZM21.4226 51.092L20.6026 50.5196L21.4226 51.092ZM9.17565 13.8262L9.9673 13.2152L9.17565 13.8262ZM17.6955 54.1171L17.2476 53.223L17.6955 54.1171ZM42.2986 54.1141L42.7445 53.2191L42.2986 54.1141ZM26.2296 47.5866L26.2298 46.5866L26.2296 47.5866ZM38.5784 51.0922L37.7584 51.6644L38.5784 51.0922ZM33.773 47.5879L33.7728 48.5879L33.773 47.5879ZM30 41.3448C29.9971 41.3448 29.9925 41.344 29.9886 41.3423C29.9856 41.3409 29.9859 41.3404 29.9881 41.3427C29.9904 41.3451 29.9934 41.3491 29.9958 41.3549C29.9979 41.3601 30 41.3678 30 41.3793H32C32 40.2889 31.1376 39.3448 30 39.3448V41.3448ZM30 41.3793C30 41.3908 29.9979 41.3985 29.9958 41.4037C29.9934 41.4095 29.9904 41.4136 29.9881 41.4159C29.9859 41.4182 29.9856 41.4177 29.9886 41.4163C29.9925 41.4147 29.9971 41.4138 30 41.4138V43.4138C31.1376 43.4138 32 42.4697 32 41.3793H30ZM30 41.4138C30.0029 41.4138 30.0075 41.4147 30.0114 41.4163C30.0144 41.4177 30.0141 41.4182 30.0119 41.4159C30.0096 41.4136 30.0066 41.4095 30.0042 41.4037C30.0021 41.3985 30 41.3908 30 41.3793H28C28 42.4697 28.8624 43.4138 30 43.4138V41.4138ZM30 41.3793C30 41.3678 30.0021 41.3601 30.0042 41.3549C30.0066 41.3491 30.0096 41.3451 30.0119 41.3427C30.0141 41.3404 30.0144 41.3409 30.0114 41.3423C30.0075 41.344 30.0029 41.3448 30 41.3448V39.3448C28.8624 39.3448 28 40.2889 28 41.3793H30ZM33.1938 52.7931H26.8077V54.7931H33.1938V52.7931ZM26.2294 48.5866L33.7728 48.5879L33.7732 46.5879L26.2298 46.5866L26.2294 48.5866ZM-1 42.9321C-1 46.0185 1.43389 48.5862 4.498 48.5862V46.5862C2.60211 46.5862 1 44.9787 1 42.9321H-1ZM4.498 48.5862H18.6551V46.5862H4.498V48.5862ZM20.6026 50.5196C20.3627 50.8632 20.0732 51.1626 19.7416 51.4046L20.9204 53.0202C21.4395 52.6415 21.8824 52.1802 22.2426 51.6643L20.6026 50.5196ZM19.7417 51.4045L17.9407 52.7183L19.1193 54.3341L20.9203 53.0203L19.7417 51.4045ZM17.2476 53.223C15.9152 53.8905 15 55.2847 15 56.8966H17C17 56.0562 17.4748 55.3461 18.1435 55.0112L17.2476 53.223ZM15 56.8966C15 59.1276 16.762 61 19 61V59C17.93 59 17 58.0875 17 56.8966H15ZM19 61H41V59H19V61ZM41 61C43.238 61 45 59.1276 45 56.8966H43C43 58.0875 42.07 59 41 59V61ZM45 56.8966C45 55.2816 44.0812 53.885 42.7445 53.2191L41.8526 55.0092C42.5233 55.3433 43 56.0545 43 56.8966H45ZM42.065 52.7212L40.261 51.4063L39.083 53.0226L40.887 54.3374L42.065 52.7212ZM40.2612 51.4065C39.9289 51.1642 39.6388 50.8642 39.3985 50.5199L37.7584 51.6644C38.119 52.1813 38.5628 52.6433 39.0828 53.0225L40.2612 51.4065ZM41.346 48.5862H55.502V46.5862H41.346V48.5862ZM55.502 48.5862C58.5661 48.5862 61 46.0185 61 42.9321H59C59 44.9787 57.3979 46.5862 55.502 46.5862V48.5862ZM61 42.9321V42.2759H59V42.9321H61ZM56 37.2759H4V39.2759H56V37.2759ZM-1 42.2759V42.9321H1V42.2759H-1ZM26 16.5862H24V18.5862H26V16.5862ZM24 16.5862C24.0029 16.5862 24.0075 16.5871 24.0114 16.5888C24.0144 16.5901 24.0141 16.5907 24.0119 16.5883C24.0096 16.586 24.0066 16.5819 24.0042 16.5761C24.0021 16.5709 24 16.5632 24 16.5517H22C22 17.6422 22.8624 18.5862 24 18.5862V16.5862ZM24 16.5517C24 16.5403 24.0021 16.5325 24.0042 16.5273C24.0066 16.5215 24.0096 16.5175 24.0119 16.5151C24.0141 16.5128 24.0144 16.5134 24.0114 16.5147C24.0075 16.5164 24.0029 16.5172 24 16.5172V14.5172C22.8624 14.5172 22 15.4613 22 16.5517H24ZM24 16.5172H26V14.5172H24V16.5172ZM26 16.5172C25.9971 16.5172 25.9925 16.5164 25.9886 16.5147C25.9856 16.5134 25.9859 16.5128 25.9881 16.5151C25.9904 16.5175 25.9934 16.5215 25.9958 16.5273C25.9979 16.5325 26 16.5403 26 16.5517H28C28 15.4613 27.1376 14.5172 26 14.5172V16.5172ZM26 16.5517C26 16.5632 25.9979 16.5709 25.9958 16.5761C25.9934 16.5819 25.9904 16.586 25.9881 16.5883C25.9859 16.5907 25.9856 16.5901 25.9886 16.5888C25.9925 16.5871 25.9971 16.5862 26 16.5862V18.5862C27.1376 18.5862 28 17.6422 28 16.5517H26ZM20 16.5862H18V18.5862H20V16.5862ZM18 16.5862C18.0029 16.5862 18.0075 16.5871 18.0114 16.5888C18.0144 16.5901 18.0141 16.5907 18.0119 16.5883C18.0096 16.586 18.0066 16.5819 18.0042 16.5761C18.0021 16.5709 18 16.5632 18 16.5517H16C16 17.6422 16.8624 18.5862 18 18.5862V16.5862ZM18 16.5517C18 16.5403 18.0021 16.5325 18.0042 16.5273C18.0066 16.5215 18.0096 16.5175 18.0119 16.5151C18.0141 16.5128 18.0144 16.5134 18.0114 16.5147C18.0075 16.5164 18.0029 16.5172 18 16.5172V14.5172C16.8624 14.5172 16 15.4613 16 16.5517H18ZM18 16.5172H20V14.5172H18V16.5172ZM20 16.5172C19.9971 16.5172 19.9925 16.5164 19.9886 16.5147C19.9856 16.5134 19.9859 16.5128 19.9881 16.5151C19.9904 16.5175 19.9934 16.5215 19.9958 16.5273C19.9979 16.5325 20 16.5403 20 16.5517H22C22 15.4613 21.1376 14.5172 20 14.5172V16.5172ZM20 16.5517C20 16.5632 19.9979 16.5709 19.9958 16.5761C19.9934 16.5819 19.9904 16.586 19.9881 16.5883C19.9859 16.5907 19.9856 16.5901 19.9886 16.5888C19.9925 16.5871 19.9971 16.5862 20 16.5862V18.5862C21.1376 18.5862 22 17.6422 22 16.5517H20ZM14 12.4138C14 12.4253 13.9979 12.433 13.9958 12.4382C13.9934 12.444 13.9904 12.448 13.9881 12.4504C13.9859 12.4527 13.9856 12.4522 13.9886 12.4508C13.9925 12.4491 13.9971 12.4483 14 12.4483V14.4483C15.1376 14.4483 16 13.5042 16 12.4138H14ZM14 12.4483C14.0029 12.4483 14.0075 12.4491 14.0114 12.4508C14.0144 12.4522 14.0141 12.4527 14.0119 12.4504C14.0096 12.448 14.0066 12.444 14.0042 12.4382C14.0021 12.433 14 12.4253 14 12.4138H12C12 13.5042 12.8624 14.4483 14 14.4483V12.4483ZM14 12.4138V6.2069H12V12.4138H14ZM14 6.2069C14 6.19542 14.0021 6.18771 14.0042 6.18249C14.0066 6.17669 14.0096 6.17264 14.0119 6.17029C14.0141 6.16796 14.0144 6.16853 14.0114 6.16987C14.0075 6.17155 14.0029 6.17241 14 6.17241V4.17241C12.8624 4.17241 12 5.11647 12 6.2069H14ZM14 6.17241C13.9971 6.17241 13.9925 6.17155 13.9886 6.16987C13.9856 6.16853 13.9859 6.16796 13.9881 6.17029C13.9904 6.17264 13.9934 6.17669 13.9958 6.18249C13.9979 6.18771 14 6.19542 14 6.2069H16C16 5.11647 15.1376 4.17241 14 4.17241V6.17241ZM14 6.2069V12.4138H16V6.2069H14ZM14 16.5862C14.0029 16.5862 14.0075 16.5871 14.0114 16.5888C14.0144 16.5901 14.0141 16.5907 14.0119 16.5883C14.0096 16.586 14.0066 16.5819 14.0042 16.5761C14.0021 16.5709 14 16.5632 14 16.5517H12C12 17.6422 12.8624 18.5862 14 18.5862V16.5862ZM14 16.5517C14 16.5403 14.0021 16.5325 14.0042 16.5273C14.0066 16.5215 14.0096 16.5175 14.0119 16.5151C14.0141 16.5128 14.0144 16.5134 14.0114 16.5147C14.0075 16.5164 14.0029 16.5172 14 16.5172V14.5172C12.8624 14.5172 12 15.4613 12 16.5517H14ZM14 16.5172C13.9971 16.5172 13.9925 16.5164 13.9886 16.5147C13.9856 16.5134 13.9859 16.5128 13.9881 16.5151C13.9904 16.5175 13.9934 16.5215 13.9958 16.5273C13.9979 16.5325 14 16.5403 14 16.5517H16C16 15.4613 15.1376 14.5172 14 14.5172V16.5172ZM14 16.5517C14 16.5632 13.9979 16.5709 13.9958 16.5761C13.9934 16.5819 13.9904 16.586 13.9881 16.5883C13.9859 16.5907 13.9856 16.5901 13.9886 16.5888C13.9925 16.5871 13.9971 16.5862 14 16.5862V18.5862C15.1376 18.5862 16 17.6422 16 16.5517H14ZM9.98643 16.5893C9.98469 16.5907 9.98421 16.5909 9.98507 16.5904C9.98592 16.5899 9.98748 16.5891 9.98962 16.5884C9.99421 16.5867 9.99838 16.5862 10.001 16.5862V18.5862C10.4479 18.5862 10.8936 18.4346 11.2616 18.13L9.98643 16.5893ZM10.001 16.5862C10.0052 16.5862 10.0087 16.5872 10.0114 16.5884C10.0127 16.5891 10.0136 16.5897 10.0138 16.5899C10.0141 16.5902 10.0131 16.5894 10.011 16.5867L8.42705 17.8078C8.81691 18.3135 9.40275 18.5862 10.001 18.5862V16.5862ZM10.0105 16.5861L6.02253 11.4209L4.43947 12.6432L8.42747 17.8084L10.0105 16.5861ZM6.02307 11.4216C6.01758 11.4145 6.01227 11.4026 6.01225 11.386C6.01223 11.3694 6.01742 11.3585 6.02207 11.3525L4.43793 10.1316C3.86856 10.8704 3.87182 11.9066 4.43893 12.6425L6.02307 11.4216ZM6.02235 11.3521L10.0104 6.17248L8.42565 4.95235L4.43765 10.132L6.02235 11.3521ZM10.0097 6.17327C10.0119 6.1705 10.0132 6.16938 10.0133 6.16926C10.0135 6.16911 10.0131 6.16948 10.0121 6.17004C10.01 6.17119 10.0071 6.17226 10.0035 6.17268C9.99994 6.17311 9.99581 6.17284 9.99172 6.17166C9.98971 6.17109 9.98824 6.17043 9.98742 6.17C9.98655 6.16954 9.98709 6.16969 9.98894 6.17121L11.2571 4.62465C10.3816 3.90684 9.11047 4.06475 8.42626 4.95156L10.0097 6.17327ZM9.98719 6.16978C9.98933 6.17154 9.99721 6.17892 9.99942 6.19918C10.0016 6.21956 9.99577 6.23336 9.98958 6.24141L11.5744 7.46135C12.2429 6.59286 12.1129 5.32961 11.2588 4.62609L9.98719 6.16978ZM9.98956 6.24143L8.38005 8.33248L9.96492 9.55238L11.5744 7.46133L9.98956 6.24143ZM8.38401 14.4371L9.98935 16.5172L11.5726 15.2952L9.9673 13.2152L8.38401 14.4371ZM9.98943 16.5173C9.99607 16.5259 10.0018 16.5399 9.99964 16.5598C9.99751 16.5796 9.98992 16.5864 9.98819 16.5878L11.2598 18.1315C12.1153 17.4268 12.2422 16.1625 11.5726 15.2951L9.98943 16.5173ZM55.502 -1H4.498V1H55.502V-1ZM4.498 -1C1.43389 -1 -1 1.56767 -1 4.65414H1C1 2.6075 2.60211 1 4.498 1V-1ZM-1 4.65414V32.2069H1V4.65414H-1ZM4 37.2069H56V35.2069H4V37.2069ZM61 32.2069V4.65414H59V32.2069H61ZM61 4.65414C61 1.56767 58.5661 -1 55.502 -1V1C57.3979 1 59 2.6075 59 4.65414H61ZM56 37.2069C58.7614 37.2069 61 34.9683 61 32.2069H59C59 33.8638 57.6569 35.2069 56 35.2069V37.2069ZM-1 32.2069C-1 34.9683 1.23858 37.2069 4 37.2069V35.2069C2.34315 35.2069 1 33.8638 1 32.2069H-1ZM18.6551 48.5862C19.4371 48.5862 20.144 48.9292 20.5178 49.3559C20.6977 49.5614 20.7767 49.7565 20.7928 49.92C20.8077 50.071 20.7773 50.2693 20.6026 50.5196L22.2426 51.6643C22.6654 51.0586 22.8489 50.3906 22.7831 49.7238C22.7186 49.0694 22.4225 48.4951 22.0222 48.0381C21.2355 47.14 19.9611 46.5862 18.6551 46.5862V48.5862ZM8.38005 8.33248C6.99483 10.1321 6.99645 12.6393 8.38401 14.4371L9.9673 13.2152C9.13477 12.1365 9.13379 10.6322 9.96492 9.55238L8.38005 8.33248ZM4 37.2759C1.23858 37.2759 -1 39.5144 -1 42.2759H1C1 40.619 2.34315 39.2759 4 39.2759V37.2759ZM61 42.2759C61 39.5144 58.7614 37.2759 56 37.2759V39.2759C57.6569 39.2759 59 40.619 59 42.2759H61ZM17.9469 52.7138C17.7985 52.8203 17.6059 52.9757 17.5164 53.044C17.3962 53.1357 17.3152 53.1891 17.2476 53.223L18.1435 55.0112C18.3794 54.8929 18.5778 54.7499 18.7299 54.6337C18.9128 54.4941 18.9857 54.4301 19.1131 54.3386L17.9469 52.7138ZM42.7445 53.2191C42.678 53.1859 42.5982 53.1338 42.4825 53.0455C42.4165 52.9952 42.1904 52.814 42.0708 52.7254L40.8812 54.3332C41.0311 54.4441 41.0662 54.4805 41.2692 54.6354C41.4223 54.7523 41.619 54.8928 41.8526 55.0092L42.7445 53.2191ZM25.2101 49.6715C25.3467 48.9717 25.8483 48.5865 26.2294 48.5866L26.2298 46.5866C24.5793 46.5863 23.4999 47.994 23.2472 49.2882L25.2101 49.6715ZM26.8077 52.7931C26.516 52.7931 26.0534 52.5336 25.6427 51.7791C25.2499 51.0576 25.1037 50.2163 25.2101 49.6715L23.2472 49.2882C23.0303 50.3988 23.3302 51.7142 23.8861 52.7354C24.4242 53.7237 25.4128 54.7931 26.8077 54.7931V52.7931ZM39.3985 50.5199C39.2238 50.2695 39.1934 50.0712 39.2083 49.9201C39.2244 49.7566 39.3034 49.5614 39.4834 49.356C39.8571 48.9292 40.564 48.5862 41.346 48.5862V46.5862C40.04 46.5862 38.7656 47.14 37.9789 48.0382C37.5786 48.4952 37.2825 49.0694 37.218 49.7238C37.1522 50.3907 37.3356 51.0586 37.7584 51.6644L39.3985 50.5199ZM34.7911 49.6717C34.8975 50.2165 34.7513 51.0577 34.3585 51.7792C33.9479 52.5337 33.4854 52.7931 33.1938 52.7931V54.7931C34.5887 54.7931 35.5772 53.7236 36.1152 52.7354C36.671 51.7142 36.9709 50.3989 36.7541 49.2884L34.7911 49.6717ZM36.7541 49.2884C36.5014 47.9946 35.4226 46.5882 33.7732 46.5879L33.7728 48.5879C34.1537 48.588 34.6547 48.9728 34.7911 49.6717L36.7541 49.2884Z" fill="black" mask="url(#path-1-inside-1)"/>
</svg>
