<svg width="30" height="30" viewBox="0 0 30 30" fill="none" xmlns="http://www.w3.org/2000/svg">
<path fill-rule="evenodd" clip-rule="evenodd" d="M15 30C6.71573 30 0 23.2843 0 15C0 6.71573 6.71573 0 15 0C23.2843 0 30 6.71573 30 15C30 23.2843 23.2843 30 15 30ZM15.209 14.1581C16.4372 14.1581 22.409 10.8 22.409 10.8L22.4186 10.2C22.4186 9.5376 21.881 9 21.2168 9H9.2012C8.5376 9 8 9.5376 8 10.2V10.7346C8 10.7346 14.0372 14.1581 15.209 14.1581ZM15.209 15.8081C14.0372 15.8081 8.009 12.6 8.0096 12.6L8 19.8C8 20.4624 8.5382 21 9.2012 21H21.2168C21.881 21 22.4186 20.4624 22.4186 19.8L22.409 12.6C22.409 12.6 16.4936 15.8081 15.209 15.8081Z" fill="white" fill-opacity="0.8"/>
</svg>
