<svg width="30" height="30" viewBox="0 0 30 30" fill="none" xmlns="http://www.w3.org/2000/svg">
<path fill-rule="evenodd" clip-rule="evenodd" d="M12.5052 18.0514L12.25 21.875C12.625 21.875 12.7907 21.7035 13 21.5L14.8017 19.7481L18.55 22.5174C19.2398 22.898 19.7377 22.7009 19.9095 21.8769L22.3701 10.2816C22.622 9.27154 21.9851 8.81344 21.3252 9.11304L6.87645 14.6844C5.89019 15.08 5.89594 15.6302 6.69667 15.8754L10.4045 17.0327L18.9887 11.6171C19.3939 11.3713 19.7658 11.5035 19.4606 11.7744L12.505 18.0513L12.5052 18.0514ZM15 30C6.71573 30 0 23.2843 0 15C0 6.71573 6.71573 0 15 0C23.2843 0 30 6.71573 30 15C30 23.2843 23.2843 30 15 30Z" fill="white" fill-opacity="0.8"/>
</svg>
