<svg width="60" height="60" viewBox="0 0 60 60" fill="none" xmlns="http://www.w3.org/2000/svg">
<mask id="path-1-inside-1" fill="white">
<path d="M30.7141 39.6995C30.8178 39.4218 30.9335 39.149 31.0578 38.8781C30.4372 37.9914 30.1037 36.9414 30.1037 35.8413C30.1037 34.408 30.6706 33.0614 31.6917 32.0557C32.7174 31.0401 34.0822 30.4815 35.5349 30.4815C36.6482 30.4815 37.7096 30.8105 38.6074 31.4214C38.8825 31.3003 39.1583 31.1867 39.4411 31.0824C39.9082 28.5922 42.1227 26.7001 44.7788 26.7001C45.3912 26.7001 45.9778 26.8105 46.5282 26.9966C47.5199 26.2609 48.1706 25.1004 48.1706 23.7815C48.1706 21.5533 46.3407 19.7468 44.0845 19.7468H41.5963C41.1433 17.8291 40.3773 16.0354 39.3536 14.412L41.1178 12.6715C42.7135 11.0964 42.7135 8.54112 41.1178 6.96607C39.5214 5.39029 36.9318 5.39029 35.3391 6.96607L33.5758 8.70665C31.9314 7.69499 30.1142 6.93881 28.1729 6.49238V4.03469C28.1729 1.80642 26.3411 0 24.0862 0C21.8283 0 20 1.80654 20 4.03469V6.49213C18.0567 6.93857 16.239 7.69487 14.5952 8.7064L12.8337 6.96693C11.2391 5.39102 8.6497 5.39102 7.05515 6.96693C5.45876 8.5421 5.45876 11.0973 7.05515 12.6722L8.81672 14.4118C7.79363 16.0352 7.02693 17.8288 6.57664 19.7466H4.08609C1.82924 19.7466 0 21.5531 0 23.7813C0 26.0094 1.82937 27.816 4.08609 27.816H6.5764C7.02668 29.734 7.79338 31.5285 8.81907 33.1519L7.05478 34.8924C5.45839 36.4675 5.45839 39.0227 7.05478 40.5978C7.8528 41.3859 8.8982 41.7799 9.94385 41.7799C10.9893 41.7799 12.0348 41.3859 12.8333 40.5978L14.5968 38.8573C16.2406 39.8679 18.0564 40.6244 19.9996 41.0707V43.5281C19.9996 45.7563 21.8278 47.5628 24.0858 47.5628C25.0277 47.5628 25.8857 47.2348 26.5761 46.7048C26.3887 46.1591 26.2748 45.5781 26.2748 44.9703C26.2748 42.3491 28.1904 40.1605 30.7141 39.6995ZM24.0858 31.8557C19.5691 31.8557 15.9061 28.2406 15.9061 23.7814C15.9061 19.3221 19.5692 15.7072 24.0858 15.7072C28.6013 15.7072 32.2625 19.3221 32.2625 23.7814C32.2625 28.2406 28.6013 31.8557 24.0858 31.8557Z"/>
<path d="M57.8534 42.8516H56.3369C56.0336 41.2215 55.3893 39.7103 54.473 38.3962L55.543 37.3414C56.3805 36.5139 56.3805 35.1714 55.543 34.3439C55.1239 33.9294 54.573 33.7225 54.0246 33.7225C53.4757 33.7225 52.9253 33.9294 52.5062 34.3439L51.4364 35.4C50.1081 34.4937 48.5757 33.8584 46.9236 33.5569V32.0607C46.9236 30.8905 45.9638 29.942 44.7789 29.942C43.594 29.942 42.6342 30.8905 42.6342 32.0607V33.5569C40.9821 33.8585 39.4517 34.4937 38.1207 35.3991L37.0516 34.3452C36.6325 33.9314 36.0834 33.7235 35.5351 33.7235C34.984 33.7235 34.4338 33.9314 34.0167 34.3452C33.1767 35.1715 33.1767 36.514 34.0167 37.3415L35.0839 38.3964C34.1683 39.7106 33.524 41.2216 33.2208 42.8517H31.7043C30.5193 42.8517 29.5576 43.8003 29.5576 44.9705C29.5576 46.1417 30.5193 47.0904 31.7043 47.0904H33.2208C33.524 48.7204 34.1684 50.2306 35.0859 51.5454L34.0167 52.6015C33.1767 53.4288 33.1767 54.7705 34.0167 55.5978C34.4358 56.0116 34.9841 56.2193 35.5351 56.2193C36.0832 56.2193 36.6324 56.0116 37.0516 55.5978L38.1207 54.543C39.4517 55.4471 40.9821 56.0825 42.6342 56.3839V57.8802C42.6342 59.0513 43.594 60 44.7789 60C45.9638 60 46.9236 59.0513 46.9236 57.8802V56.3849C48.5757 56.0827 50.1057 55.4471 51.4364 54.5419L52.5062 55.5987C52.9253 56.0125 53.4757 56.2195 54.0246 56.2195C54.573 56.2195 55.1239 56.0127 55.543 55.5987C56.3805 54.7715 56.3805 53.4288 55.543 52.6015L54.473 51.5454C55.3894 50.2305 56.0336 48.7204 56.3369 47.0904H57.8534C59.0384 47.0904 60.0001 46.1417 60.0001 44.9705C60.0001 43.8002 59.0384 42.8516 57.8534 42.8516ZM44.7787 49.3459C42.3306 49.3459 40.3472 47.3868 40.3472 44.9705C40.3472 42.5541 42.3306 40.5949 44.7787 40.5949C47.2267 40.5949 49.2095 42.5542 49.2095 44.9705C49.2096 47.3868 47.2268 49.3459 44.7787 49.3459Z"/>
</mask>
<path d="M30.7141 39.6995L30.8938 40.6832L31.4524 40.5812L31.651 40.0492L30.7141 39.6995ZM31.0578 38.8781L31.9668 39.2949L32.2056 38.7741L31.877 38.3046L31.0578 38.8781ZM31.6917 32.0557L32.3934 32.7682L32.3954 32.7663L31.6917 32.0557ZM38.6074 31.4214L38.0448 32.2481L38.503 32.5599L39.0102 32.3366L38.6074 31.4214ZM39.4411 31.0824L39.7872 32.0206L40.3194 31.8243L40.424 31.2668L39.4411 31.0824ZM46.5282 26.9966L46.2079 27.9439L46.7037 28.1116L47.124 27.7997L46.5282 26.9966ZM41.5963 19.7468L40.6231 19.9767L40.805 20.7468H41.5963V19.7468ZM39.3536 14.412L38.6513 13.7002L38.0787 14.2651L38.5077 14.9455L39.3536 14.412ZM41.1178 12.6715L41.8201 13.3833L41.8202 13.3832L41.1178 12.6715ZM41.1178 6.96607L40.4153 7.67776L40.4153 7.67779L41.1178 6.96607ZM35.3391 6.96607L36.0416 7.67775L36.0424 7.67695L35.3391 6.96607ZM33.5758 8.70665L33.0519 9.55838L33.72 9.96944L34.2783 9.41833L33.5758 8.70665ZM28.1729 6.49238H27.1729V7.28851L27.9488 7.46694L28.1729 6.49238ZM20 6.49213L20.2239 7.46675L21 7.28845V6.49213H20ZM14.5952 8.7064L13.8926 9.41796L14.451 9.96935L15.1193 9.55806L14.5952 8.7064ZM12.8337 6.96693L12.1307 7.67818L12.131 7.67848L12.8337 6.96693ZM7.05515 6.96693L7.75751 7.67875L7.75809 7.67818L7.05515 6.96693ZM7.05515 12.6722L7.75781 11.9607L7.75746 11.9603L7.05515 12.6722ZM8.81672 14.4118L9.66273 14.945L10.0913 14.265L9.51938 13.7003L8.81672 14.4118ZM6.57664 19.7466V20.7466H7.36904L7.55017 19.9752L6.57664 19.7466ZM6.5764 27.816L7.54993 27.5874L7.36882 26.816H6.5764V27.816ZM8.81907 33.1519L9.52137 33.8637L10.0945 33.2983L9.66446 32.6177L8.81907 33.1519ZM7.05478 34.8924L6.35248 34.1806L6.35245 34.1806L7.05478 34.8924ZM7.05478 40.5978L7.75745 39.8863L7.75714 39.886L7.05478 40.5978ZM12.8333 40.5978L13.5357 41.3096L13.5357 41.3096L12.8333 40.5978ZM14.5968 38.8573L15.1206 38.0054L14.4525 37.5946L13.8944 38.1455L14.5968 38.8573ZM19.9996 41.0707H20.9996V40.2743L20.2235 40.0961L19.9996 41.0707ZM26.5761 46.7048L27.1851 47.498L27.7556 47.06L27.5219 46.3798L26.5761 46.7048ZM26.2748 44.9703H27.2748H26.2748ZM56.3369 42.8516L55.3538 43.0345L55.5058 43.8516H56.3369V42.8516ZM54.473 38.3962L53.771 37.6841L53.1703 38.2763L53.6527 38.9682L54.473 38.3962ZM55.543 37.3414L56.245 38.0535L56.2458 38.0527L55.543 37.3414ZM55.543 34.3439L54.8397 35.0549L54.8401 35.0553L55.543 34.3439ZM52.5062 34.3439L53.2087 35.0556L53.2095 35.0549L52.5062 34.3439ZM51.4364 35.4L50.8728 36.226L51.553 36.6901L52.1389 36.1116L51.4364 35.4ZM46.9236 33.5569H45.9236V34.391L46.7441 34.5407L46.9236 33.5569ZM42.6342 33.5569L42.8138 34.5407L43.6342 34.3909V33.5569H42.6342ZM38.1207 35.3991L37.4186 36.1113L38.0038 36.6881L38.6831 36.226L38.1207 35.3991ZM37.0516 34.3452L36.349 35.0568L36.3496 35.0574L37.0516 34.3452ZM34.0167 34.3452L34.718 35.0582L34.721 35.0552L34.0167 34.3452ZM34.0167 37.3415L34.7197 36.6303L34.7185 36.6291L34.0167 37.3415ZM35.0839 38.3964L35.9044 38.968L36.3858 38.2771L35.7869 37.6851L35.0839 38.3964ZM33.2208 42.8517V43.8517H34.0519L34.2039 43.0346L33.2208 42.8517ZM33.2208 47.0904L34.2039 46.9075L34.0519 46.0904H33.2208V47.0904ZM35.0859 51.5454L35.7886 52.2569L36.3884 51.6645L35.906 50.9732L35.0859 51.5454ZM34.0167 52.6015L34.7184 53.314L34.7194 53.313L34.0167 52.6015ZM34.0167 55.5978L34.7193 54.8862L34.7184 54.8853L34.0167 55.5978ZM37.0516 55.5978L36.3493 54.8859L36.3491 54.8861L37.0516 55.5978ZM38.1207 54.543L38.6825 53.7158L38.0031 53.2543L37.4184 53.8312L38.1207 54.543ZM42.6342 56.3839H43.6342V55.5498L42.8137 55.4001L42.6342 56.3839ZM46.9236 56.3849L46.7436 55.4012L45.9236 55.5512V56.3849H46.9236ZM51.4364 54.5419L52.1392 53.8305L51.5541 53.2525L50.874 53.7151L51.4364 54.5419ZM52.5062 55.5987L51.8035 56.3101L51.8036 56.3103L52.5062 55.5987ZM55.543 55.5987L56.2457 56.3102L55.543 55.5987ZM55.543 52.6015L56.2457 51.89L56.2454 51.8898L55.543 52.6015ZM54.473 51.5454L53.6526 50.9737L53.1708 51.6651L53.7705 52.2571L54.473 51.5454ZM56.3369 47.0904V46.0904H55.5058L55.3538 46.9074L56.3369 47.0904ZM49.2095 44.9705H48.2095V44.9706L49.2095 44.9705ZM31.651 40.0492C31.7445 39.7988 31.8503 39.5488 31.9668 39.2949L30.1488 38.4612C30.0167 38.7492 29.8911 39.0447 29.7773 39.3498L31.651 40.0492ZM31.877 38.3046C31.3742 37.5862 31.1037 36.7365 31.1037 35.8413H29.1037C29.1037 37.1464 29.5001 38.3966 30.2385 39.4515L31.877 38.3046ZM31.1037 35.8413C31.1037 34.6774 31.5621 33.587 32.3934 32.7682L30.99 31.3433C29.7791 32.5359 29.1037 34.1387 29.1037 35.8413H31.1037ZM32.3954 32.7663C33.2322 31.9376 34.3435 31.4815 35.5349 31.4815V29.4815C33.8209 29.4815 32.2026 30.1425 30.9881 31.3452L32.3954 32.7663ZM35.5349 31.4815C36.4489 31.4815 37.314 31.7509 38.0448 32.2481L39.1699 30.5946C38.1052 29.8702 36.8475 29.4815 35.5349 29.4815V31.4815ZM39.0102 32.3366C39.2708 32.222 39.5274 32.1165 39.7872 32.0206L39.095 30.1442C38.7893 30.257 38.4942 30.3786 38.2045 30.5061L39.0102 32.3366ZM40.424 31.2668C40.8025 29.2486 42.6049 27.7001 44.7788 27.7001V25.7001C41.6406 25.7001 39.0138 27.9359 38.4583 30.8981L40.424 31.2668ZM44.7788 27.7001C45.2699 27.7001 45.7483 27.7885 46.2079 27.9439L46.8485 26.0493C46.2074 25.8325 45.5125 25.7001 44.7788 25.7001V27.7001ZM47.124 27.7997C48.3499 26.8902 49.1706 25.4411 49.1706 23.7815H47.1706C47.1706 24.7596 46.6898 25.6315 45.9324 26.1935L47.124 27.7997ZM49.1706 23.7815C49.1706 20.989 46.881 18.7468 44.0845 18.7468V20.7468C45.8005 20.7468 47.1706 22.1175 47.1706 23.7815H49.1706ZM44.0845 18.7468H41.5963V20.7468H44.0845V18.7468ZM42.5695 19.517C42.0905 17.4889 41.2806 15.5931 40.1995 13.8786L38.5077 14.9455C39.474 16.4778 40.1961 18.1692 40.6231 19.9767L42.5695 19.517ZM40.0559 15.1239L41.8201 13.3833L40.4154 11.9596L38.6513 13.7002L40.0559 15.1239ZM41.8202 13.3832C43.8127 11.4166 43.8127 8.22096 41.8202 6.25436L40.4153 7.67779C41.6144 8.86128 41.6144 10.7763 40.4153 11.9598L41.8202 13.3832ZM41.8203 6.25439C39.8349 4.29464 36.6186 4.29347 34.6358 6.2552L36.0424 7.67695C37.2451 6.48712 39.2079 6.48595 40.4153 7.67776L41.8203 6.25439ZM34.6366 6.2544L32.8733 7.99497L34.2783 9.41833L36.0416 7.67775L34.6366 6.2544ZM34.0998 7.85492C32.3645 6.78738 30.4463 5.98908 28.397 5.51782L27.9488 7.46694C29.7821 7.88854 31.4982 8.60261 33.0519 9.55838L34.0998 7.85492ZM29.1729 6.49238V4.03469H27.1729V6.49238H29.1729ZM29.1729 4.03469C29.1729 1.24176 26.8809 -1 24.0862 -1V1C25.8013 1 27.1729 2.37108 27.1729 4.03469H29.1729ZM24.0862 -1C21.2878 -1 19 1.24255 19 4.03469H21C21 2.37054 22.3688 1 24.0862 1V-1ZM19 4.03469V6.49213H21V4.03469H19ZM19.7761 5.51752C17.7248 5.98877 15.8059 6.78721 14.0711 7.85475L15.1193 9.55806C16.672 8.60254 18.3887 7.88836 20.2239 7.46675L19.7761 5.51752ZM15.2979 7.99485L13.5363 6.25537L12.131 7.67848L13.8926 9.41796L15.2979 7.99485ZM13.5366 6.25567C11.5525 4.29477 8.33632 4.29477 6.35222 6.25567L7.75809 7.67818C8.96309 6.48727 10.9257 6.48727 12.1307 7.67818L13.5366 6.25567ZM6.3528 6.2551C4.35958 8.22182 4.3595 11.4175 6.35285 13.3841L7.75746 11.9603C6.55802 10.777 6.55794 8.86237 7.75751 7.67875L6.3528 6.2551ZM6.3525 13.3837L8.11407 15.1233L9.51938 13.7003L7.75781 11.9607L6.3525 13.3837ZM7.97072 13.8786C6.89048 15.5927 6.07956 17.4888 5.60312 19.518L7.55017 19.9752C7.9743 18.1688 8.69678 16.4777 9.66273 14.945L7.97072 13.8786ZM6.57664 18.7466H4.08609V20.7466H6.57664V18.7466ZM4.08609 18.7466C1.28888 18.7466 -1 20.989 -1 23.7813H1C1 22.1173 2.36961 20.7466 4.08609 20.7466V18.7466ZM-1 23.7813C-1 26.5736 1.28902 28.816 4.08609 28.816V26.816C2.36971 26.816 1 25.4453 1 23.7813H-1ZM4.08609 28.816H6.5764V26.816H4.08609V28.816ZM5.60286 28.0445C6.07928 30.0739 6.89027 31.9713 7.97367 33.686L9.66446 32.6177C8.6965 31.0857 7.97408 29.3941 7.54993 27.5874L5.60286 28.0445ZM8.11676 32.44L6.35248 34.1806L7.75709 35.6043L9.52137 33.8637L8.11676 32.44ZM6.35245 34.1806C4.35915 36.1472 4.35919 39.3429 6.35243 41.3097L7.75714 39.886C6.55759 38.7024 6.55763 36.7877 7.75712 35.6043L6.35245 34.1806ZM6.35212 41.3094C7.346 42.2909 8.64764 42.7799 9.94385 42.7799V40.7799C9.14876 40.7799 8.3596 40.481 7.75745 39.8863L6.35212 41.3094ZM9.94385 42.7799C11.2399 42.7799 12.5415 42.2908 13.5357 41.3096L12.1308 39.8861C11.5281 40.481 10.7386 40.7799 9.94385 40.7799V42.7799ZM13.5357 41.3096L15.2993 39.569L13.8944 38.1455L12.1308 39.8861L13.5357 41.3096ZM14.0731 39.7091C15.8073 40.7755 17.7242 41.5741 19.7758 42.0453L20.2235 40.0961C18.3885 39.6746 16.6738 38.9604 15.1206 38.0054L14.0731 39.7091ZM18.9996 41.0707V43.5281H20.9996V41.0707H18.9996ZM18.9996 43.5281C18.9996 46.3203 21.2872 48.5628 24.0858 48.5628V46.5628C22.3683 46.5628 20.9996 45.1923 20.9996 43.5281H18.9996ZM24.0858 48.5628C25.266 48.5628 26.3349 48.1507 27.1851 47.498L25.9672 45.9116C25.4366 46.3189 24.7895 46.5628 24.0858 46.5628V48.5628ZM27.5219 46.3798C27.3649 45.9229 27.2748 45.4519 27.2748 44.9703H25.2748C25.2748 45.7043 25.4125 46.3954 25.6304 47.0297L27.5219 46.3798ZM27.2748 44.9703C27.2748 42.8503 28.8271 41.0608 30.8938 40.6832L30.5344 38.7158C27.5538 39.2603 25.2748 41.8479 25.2748 44.9703H27.2748ZM24.0858 30.8557C20.109 30.8557 16.9061 27.6761 16.9061 23.7814H14.9061C14.9061 28.8052 19.0291 32.8557 24.0858 32.8557V30.8557ZM16.9061 23.7814C16.9061 19.8866 20.1091 16.7072 24.0858 16.7072V14.7072C19.0293 14.7072 14.9061 18.7575 14.9061 23.7814H16.9061ZM24.0858 16.7072C28.0609 16.7072 31.2625 19.8862 31.2625 23.7814H33.2625C33.2625 18.7579 29.1416 14.7072 24.0858 14.7072V16.7072ZM31.2625 23.7814C31.2625 27.6765 28.0609 30.8557 24.0858 30.8557V32.8557C29.1416 32.8557 33.2625 28.8048 33.2625 23.7814H31.2625ZM57.8534 41.8516H56.3369V43.8516H57.8534V41.8516ZM57.32 42.6686C56.9903 40.8967 56.2897 39.2533 55.2933 37.8243L53.6527 38.9682C54.4888 40.1674 55.0768 41.5462 55.3538 43.0345L57.32 42.6686ZM55.1751 39.1083L56.245 38.0535L54.8409 36.6293L53.771 37.6841L55.1751 39.1083ZM56.2458 38.0527C57.4796 36.8338 57.4796 34.8515 56.2458 33.6325L54.8401 35.0553C55.2815 35.4913 55.2815 36.194 54.8401 36.63L56.2458 38.0527ZM56.2462 33.6329C55.6306 33.024 54.8229 32.7225 54.0246 32.7225V34.7225C54.3231 34.7225 54.6171 34.8347 54.8397 35.0549L56.2462 33.6329ZM54.0246 32.7225C53.2256 32.7225 52.4185 33.0241 51.803 33.6329L53.2095 35.0549C53.4321 34.8346 53.7258 34.7225 54.0246 34.7225V32.7225ZM51.8037 33.6322L50.7339 34.6883L52.1389 36.1116L53.2087 35.0556L51.8037 33.6322ZM52 34.5739C50.5555 33.5884 48.8921 32.8996 47.1031 32.5732L46.7441 34.5407C48.2593 34.8172 49.6607 35.3991 50.8728 36.226L52 34.5739ZM47.9236 33.5569V32.0607H45.9236V33.5569H47.9236ZM47.9236 32.0607C47.9236 30.3269 46.5047 28.942 44.7789 28.942V30.942C45.423 30.942 45.9236 31.4541 45.9236 32.0607H47.9236ZM44.7789 28.942C43.0531 28.942 41.6342 30.3269 41.6342 32.0607H43.6342C43.6342 31.4541 44.1349 30.942 44.7789 30.942V28.942ZM41.6342 32.0607V33.5569H43.6342V32.0607H41.6342ZM42.4546 32.5732C40.6653 32.8998 39.0045 33.5885 37.5582 34.5723L38.6831 36.226C39.8989 35.3989 41.2989 34.8172 42.8138 34.5407L42.4546 32.5732ZM38.8227 34.687L37.7536 33.6331L36.3496 35.0574L37.4186 36.1113L38.8227 34.687ZM37.7542 33.6337C37.1402 33.0274 36.3353 32.7235 35.5351 32.7235V34.7235C35.8314 34.7235 36.1248 34.8355 36.349 35.0568L37.7542 33.6337ZM35.5351 32.7235C34.7337 32.7235 33.9263 33.0264 33.3124 33.6353L34.721 35.0552C34.9414 34.8365 35.2342 34.7235 35.5351 34.7235V32.7235ZM33.3155 33.6323C32.0768 34.8507 32.0775 36.835 33.3149 38.0539L34.7185 36.6291C34.2758 36.193 34.2765 35.4923 34.7179 35.0582L33.3155 33.6323ZM33.3137 38.0527L34.3809 39.1076L35.7869 37.6851L34.7197 36.6303L33.3137 38.0527ZM34.2634 37.8247C33.2679 39.2537 32.5673 40.8969 32.2377 42.6688L34.2039 43.0346C34.4808 41.5464 35.0687 40.1675 35.9044 38.968L34.2634 37.8247ZM33.2208 41.8517H31.7043V43.8517H33.2208V41.8517ZM31.7043 41.8517C29.9796 41.8517 28.5576 43.2356 28.5576 44.9705H30.5576C30.5576 44.365 31.0591 43.8517 31.7043 43.8517V41.8517ZM28.5576 44.9705C28.5576 46.7062 29.9793 48.0904 31.7043 48.0904V46.0904C31.0594 46.0904 30.5576 45.5773 30.5576 44.9705H28.5576ZM31.7043 48.0904H33.2208V46.0904H31.7043V48.0904ZM32.2377 47.2732C32.5673 49.0454 33.2682 50.688 34.2658 52.1177L35.906 50.9732C35.0687 49.7732 34.4807 48.3954 34.2039 46.9075L32.2377 47.2732ZM34.3832 50.834L33.314 51.89L34.7194 53.313L35.7886 52.2569L34.3832 50.834ZM33.315 51.889C32.0772 53.108 32.0772 55.0913 33.315 56.3103L34.7184 54.8853C34.2761 54.4497 34.2761 53.7495 34.7184 53.314L33.315 51.889ZM33.3141 56.3093C33.9284 56.9159 34.7326 57.2193 35.5351 57.2193V55.2193C35.2356 55.2193 34.9432 55.1073 34.7193 54.8862L33.3141 56.3093ZM35.5351 57.2193C36.335 57.2193 37.1399 56.9157 37.7541 56.3094L36.3491 54.8861C36.1248 55.1075 35.8314 55.2193 35.5351 55.2193V57.2193ZM37.7539 56.3096L38.823 55.2549L37.4184 53.8312L36.3493 54.8859L37.7539 56.3096ZM37.5588 55.3702C39.0046 56.3523 40.6653 57.0412 42.4548 57.3677L42.8137 55.4001C41.299 55.1238 39.8987 54.5419 38.6825 53.7158L37.5588 55.3702ZM41.6342 56.3839V57.8802H43.6342V56.3839H41.6342ZM41.6342 57.8802C41.6342 59.6145 43.0527 61 44.7789 61V59C44.1353 59 43.6342 58.4881 43.6342 57.8802H41.6342ZM44.7789 61C46.5051 61 47.9236 59.6145 47.9236 57.8802H45.9236C45.9236 58.4881 45.4225 59 44.7789 59V61ZM47.9236 57.8802V56.3849H45.9236V57.8802H47.9236ZM47.1035 57.3685C48.8928 57.0412 50.553 56.3522 51.9988 55.3688L50.874 53.7151C49.6583 54.542 48.2586 55.1241 46.7436 55.4012L47.1035 57.3685ZM50.7336 55.2533L51.8035 56.3101L53.209 54.8873L52.1392 53.8305L50.7336 55.2533ZM51.8036 56.3103C52.419 56.9179 53.2257 57.2195 54.0246 57.2195V55.2195C53.7257 55.2195 53.4317 55.1072 53.2088 54.8872L51.8036 56.3103ZM54.0246 57.2195C54.8227 57.2195 55.6301 56.9182 56.2457 56.3102L54.8403 54.8873C54.6176 55.1071 54.3233 55.2195 54.0246 55.2195V57.2195ZM56.2457 56.3102C57.4796 55.0914 57.4796 53.1088 56.2457 51.89L54.8403 53.313C55.2814 53.7487 55.2814 54.4515 54.8403 54.8873L56.2457 56.3102ZM56.2454 51.8898L55.1755 50.8337L53.7705 52.2571L54.8405 53.3132L56.2454 51.8898ZM55.2935 52.1172C56.2897 50.6876 56.9903 49.0453 57.32 47.2733L55.3538 46.9074C55.0768 48.3955 54.489 49.7734 53.6526 50.9737L55.2935 52.1172ZM56.3369 48.0904H57.8534V46.0904H56.3369V48.0904ZM57.8534 48.0904C59.5784 48.0904 61.0001 46.7062 61.0001 44.9705H59.0001C59.0001 45.5773 58.4983 46.0904 57.8534 46.0904V48.0904ZM61.0001 44.9705C61.0001 43.2355 59.5782 41.8516 57.8534 41.8516V43.8516C58.4986 43.8516 59.0001 44.3649 59.0001 44.9705H61.0001ZM44.7787 48.3459C42.871 48.3459 41.3472 46.8227 41.3472 44.9705H39.3472C39.3472 47.951 41.7903 50.3459 44.7787 50.3459V48.3459ZM41.3472 44.9705C41.3472 43.1182 42.871 41.5949 44.7787 41.5949V39.5949C41.7902 39.5949 39.3472 41.99 39.3472 44.9705H41.3472ZM44.7787 41.5949C46.6861 41.5949 48.2095 43.1181 48.2095 44.9705H50.2095C50.2095 41.9903 47.7673 39.5949 44.7787 39.5949V41.5949ZM48.2095 44.9706C48.2096 46.8228 46.6863 48.3459 44.7787 48.3459V50.3459C47.7673 50.3459 50.2097 47.9508 50.2095 44.9705L48.2095 44.9706Z" fill="black" mask="url(#path-1-inside-1)"/>
</svg>
